<svg width="112" height="112" viewBox="0 0 112 112" fill="none" xmlns="http://www.w3.org/2000/svg">
<path d="M101.535 17.605L81.3539 7.88899C80.2142 7.33948 78.9318 7.15814 77.6844 7.37011C76.4371 7.58208 75.2865 8.17686 74.3923 9.07199L8.32986 69.3C7.52832 70.0273 7.04853 71.0432 6.99602 72.1243C6.94351 73.2053 7.32259 74.2629 8.04986 75.0645C8.13736 75.159 8.22486 75.25 8.31936 75.334L13.7129 80.234C14.4176 80.8754 15.3248 81.2497 16.2768 81.2919C17.2289 81.3341 18.1656 81.0416 18.9244 80.465L98.4969 20.125C99.0979 19.6689 99.8143 19.3897 100.565 19.3186C101.317 19.2476 102.073 19.3877 102.748 19.7231C103.424 20.0585 103.993 20.5758 104.391 21.217C104.789 21.8581 105 22.5975 105 23.352V23.1175C105 21.9656 104.675 20.8372 104.062 19.862C103.449 18.8868 102.573 18.1045 101.535 17.605Z" fill="#0065A9"/>
<path d="M101.535 94.395L81.3539 104.115C80.2138 104.662 78.9318 104.843 77.6848 104.631C76.4378 104.419 75.2874 103.825 74.3923 102.932L8.32986 42.7C7.52832 41.9727 7.04853 40.9568 6.99602 39.8758C6.94351 38.7947 7.32259 37.7371 8.04986 36.9355C8.13736 36.841 8.22486 36.75 8.31936 36.666L13.7129 31.766C14.4183 31.1219 15.3276 30.7459 16.282 30.7037C17.2363 30.6615 18.1753 30.9557 18.9349 31.535L98.4969 91.875C99.0979 92.3311 99.8143 92.6104 100.565 92.6814C101.317 92.7524 102.073 92.6123 102.748 92.2769C103.424 91.9415 103.993 91.4242 104.391 90.783C104.789 90.1419 105 89.4025 105 88.648V88.9C104.996 90.0488 104.669 91.1733 104.056 92.1451C103.444 93.1168 102.57 93.8965 101.535 94.395Z" fill="#007ACC"/>
<path d="M81.3539 104.114C80.2139 104.662 78.9319 104.843 77.6849 104.631C76.4379 104.419 75.2874 103.825 74.3924 102.931C74.895 103.428 75.5329 103.764 76.226 103.899C76.9192 104.034 77.6368 103.962 78.2889 103.691C78.941 103.42 79.4987 102.963 79.892 102.376C80.2853 101.79 80.4968 101.1 80.4999 100.394V11.606C80.5005 10.8965 80.2905 10.2028 79.8965 9.61274C79.5025 9.02271 78.9423 8.56288 78.2867 8.29152C77.6312 8.02016 76.9098 7.94946 76.2141 8.0884C75.5183 8.22734 74.8795 8.56965 74.3784 9.07197C75.2728 8.17717 76.423 7.58235 77.6702 7.3698C78.9173 7.15724 80.1997 7.33744 81.3399 7.88547L101.517 17.5875C102.559 18.0845 103.438 18.8657 104.054 19.8411C104.67 20.8165 104.998 21.9463 105 23.1V88.9C105 90.0528 104.675 91.1822 104.061 92.1581C103.447 93.134 102.571 93.9167 101.531 94.416L81.3539 104.114Z" fill="#1F9CF0"/>
</svg>
